. 
 
http://www.torrenting.com          :     Once & For all ;)


               www . Torrenting . Com 

(((((((((((((= Enjoy No RAR releases =))))))))))))))))))))


...................................NFO:....................................

.








































          
          
              
              
                    
                    
                    
                    

The.devils.double.2011.BRRiP.AC3-5.1.XviD-SiC

Poster:
[img]http://img543.imageshack.us/img543/3299/thedevilsdouble2011blur.jpg[/img]

IMDB Link: 
http://www.imdb.com/title/tt1270262/

Description:
A chilling vision of the House of Saddam Hussein comes to life through the eyes 
of the man who was forced to become the double of Hussein's sadistic son. 

MediaInfo:
General
Complete name                    : The.devils.double.2011.BRRiP.AC3-5.1.XviD-SiC.avi
Format                           : AVI
Format/Info                      : Audio Video Interleave
File size                        : 1.30 GiB
Duration                         : 1h 48mn
Overall bit rate                 : 1 706 Kbps

Video
ID                               : 0
Format                           : MPEG-4 Visual
Format profile                   : Advanced Simple@L5
Format settings, BVOP            : Yes
Format settings, QPel            : No
Format settings, GMC             : No warppoints
Format settings, Matrix          : Default (H.263)
Muxing mode                      : Packed bitstream
Codec ID                         : XVID
Codec ID/Hint                    : XviD
Duration                         : 1h 48mn
Bit rate                         : 1 314 Kbps
Width                            : 720 pixels
Height                           : 304 pixels
Display aspect ratio             : 2.35:1
Frame rate                       : 23.976 fps
Resolution                       : 8 bits
Colorimetry                      : 4:2:0
Scan type                        : Progressive
Bits/(Pixel*Frame)               : 0.250
Stream size                      : 1 024 MiB (77%)
Writing library                  : XviD 64

Audio
ID                               : 1
Format                           : AC-3
Format/Info                      : Audio Coding 3
Format_Settings_ModeExtension    : CM (complete main)
Codec ID                         : 2000
Duration                         : 1h 48mn
Bit rate mode                    : Constant
Bit rate                         : 384 Kbps
Channel(s)                       : 6 channels
Channel positions                : Front: L C R, Side: L R, LFE
Sampling rate                    : 48.0 KHz
Stream size                      : 299 MiB (23%)
Alignment                        : Aligned on interleaves
Interleave, duration             : 64 ms (1.53 video frames)
Interleave, preload duration     : 192 ms
Title                            : 6ch English

Screenshots:
[img]http://img402.imageshack.us/img402/8355/thedevilsdouble2011brri.png[/img]
[img]http://img3.imageshack.us/img3/8355/thedevilsdouble2011brri.png[/img]
[img]http://img31.imageshack.us/img31/8355/thedevilsdouble2011brri.png[/img]
[img]http://img850.imageshack.us/img850/8355/thedevilsdouble2011brri.png[/img]

Note: N/A

Source : BluRay-Counterfeit Thanks!!!

Enjoy!

Respects to T00NG0D, ELEKTRI4KA, PA, YeFsTe, MrRep and everyone in the struggle...